<svg width="294" height="45" viewBox="0 0 294 45" fill="none" xmlns="http://www.w3.org/2000/svg">
<g filter="url(#filter0_d_1_2981)">
<g filter="url(#filter1_d_1_2981)">
<rect x="4.0495" y="0.833676" width="285.95" height="37.4631" rx="17.3071" fill="white" stroke="black" stroke-width="0.0989921"/>
<rect x="8.58423" y="5.49121" width="71.5124" height="28.2372" rx="11.8341" fill="#EDC7D9"/>
<path d="M35.4985 25.0446C34.5707 25.0446 33.7991 24.9121 33.1837 24.647C32.5683 24.3724 32.1045 23.989 31.792 23.4967C31.4796 22.9949 31.3234 22.408 31.3234 21.7358H33.4109C33.4109 22.0009 33.4819 22.2518 33.6239 22.4884C33.766 22.7157 33.9932 22.9003 34.3056 23.0423C34.618 23.1748 35.0156 23.2411 35.4985 23.2411C36.1422 23.2411 36.6345 23.1275 36.9753 22.9003C37.3256 22.6731 37.5008 22.3701 37.5008 21.9914C37.5008 21.6601 37.354 21.3902 37.0606 21.182C36.7671 20.9642 36.2984 20.8222 35.6547 20.7559L34.9304 20.6991C33.9174 20.6045 33.1127 20.3015 32.5163 19.7903C31.9198 19.2696 31.6216 18.5359 31.6216 17.5891C31.6216 16.9359 31.7684 16.3915 32.0619 15.956C32.3553 15.5111 32.7766 15.1797 33.3257 14.962C33.8748 14.7348 34.5328 14.6212 35.2996 14.6212C36.1233 14.6212 36.8144 14.749 37.373 15.0046C37.9315 15.2602 38.3528 15.6294 38.6369 16.1123C38.9303 16.5951 39.0771 17.1821 39.0771 17.8732H36.9896C36.9896 17.5986 36.9233 17.3572 36.7907 17.1489C36.6677 16.9312 36.4831 16.756 36.2369 16.6235C35.9908 16.4909 35.6783 16.4247 35.2996 16.4247C34.9683 16.4247 34.6843 16.472 34.4476 16.5667C34.2109 16.6614 34.031 16.7986 33.908 16.9785C33.7849 17.1489 33.7234 17.3525 33.7234 17.5891C33.7234 17.8826 33.8322 18.1477 34.05 18.3844C34.2677 18.6116 34.6275 18.7536 35.1292 18.8104L35.8535 18.8672C36.9896 18.9619 37.8984 19.2696 38.58 19.7903C39.2617 20.311 39.6025 21.0447 39.6025 21.9914C39.6025 22.6447 39.4416 23.1985 39.1197 23.6529C38.7978 24.1073 38.3292 24.4529 37.7138 24.6896C37.1079 24.9263 36.3694 25.0446 35.4985 25.0446ZM34.4902 26.8197V24.7464H36.3505V26.8197H34.4902ZM34.4334 15.317V13.2437H36.2937V15.317H34.4334ZM44.72 25.2576C43.8964 25.2576 43.1863 25.1014 42.5899 24.789C41.9935 24.4671 41.5343 24.0363 41.2124 23.4967C40.9 22.9571 40.7438 22.3606 40.7438 21.7074H42.9875C42.9875 22.0293 43.0585 22.3133 43.2005 22.5594C43.352 22.7961 43.5603 22.9855 43.8254 23.1275C44.0905 23.26 44.3934 23.3263 44.7342 23.3263C45.1129 23.3263 45.4301 23.2506 45.6857 23.0991C45.9508 22.9381 46.1543 22.7251 46.2963 22.46C46.4383 22.1855 46.5093 21.8778 46.5093 21.537C46.5093 21.1867 46.4383 20.879 46.2963 20.6139C46.1638 20.3394 45.965 20.1216 45.6999 19.9607C45.4443 19.7997 45.1319 19.7193 44.7626 19.7193C44.4218 19.7193 44.1141 19.7903 43.8396 19.9323C43.565 20.0743 43.3615 20.2542 43.2289 20.4719H41.042L41.5674 14.6212H47.8584V16.6093H42.4905L43.3852 16.0128L43.0727 19.3785L42.5331 19.2364C42.8171 18.8956 43.1579 18.6116 43.5556 18.3844C43.9627 18.1477 44.4928 18.0294 45.1461 18.0294C45.9034 18.0294 46.5472 18.1856 47.0774 18.498C47.617 18.801 48.0288 19.2128 48.3129 19.7335C48.6063 20.2447 48.7531 20.8175 48.7531 21.4518V21.6364C48.7531 22.2707 48.5969 22.8624 48.2845 23.4115C47.972 23.9606 47.5129 24.4056 46.907 24.7464C46.3105 25.0872 45.5816 25.2576 44.72 25.2576Z" fill="#000B49"/>
<path d="M115.983 23.0781V16.3737H117.794V23.0781H115.983ZM113.718 16.5946V15.0152H120.069V16.5946H113.718ZM123.293 23.288C122.762 23.288 122.291 23.207 121.879 23.045C121.466 22.8756 121.117 22.6474 120.829 22.3602C120.55 22.073 120.336 21.7453 120.189 21.3772C120.042 21.0016 119.968 20.6077 119.968 20.1953V19.9413C119.968 19.5216 120.042 19.124 120.189 18.7484C120.343 18.3655 120.564 18.0305 120.852 17.7433C121.146 17.4562 121.5 17.2316 121.912 17.0696C122.324 16.9002 122.784 16.8155 123.293 16.8155C123.815 16.8155 124.279 16.9002 124.684 17.0696C125.097 17.2316 125.446 17.4562 125.733 17.7433C126.021 18.0305 126.242 18.3655 126.396 18.7484C126.551 19.124 126.628 19.5216 126.628 19.9413V20.1953C126.628 20.6077 126.554 21.0016 126.407 21.3772C126.26 21.7453 126.043 22.073 125.756 22.3602C125.476 22.6474 125.13 22.8756 124.717 23.045C124.305 23.207 123.83 23.288 123.293 23.288ZM123.293 21.7969C123.639 21.7969 123.926 21.7233 124.154 21.576C124.382 21.4287 124.555 21.2225 124.673 20.9575C124.798 20.6924 124.861 20.3978 124.861 20.0739C124.861 19.7278 124.798 19.4259 124.673 19.1682C124.548 18.9031 124.368 18.6932 124.132 18.5386C123.904 18.384 123.624 18.3066 123.293 18.3066C122.969 18.3066 122.689 18.384 122.453 18.5386C122.217 18.6932 122.037 18.9031 121.912 19.1682C121.794 19.4259 121.735 19.7278 121.735 20.0739C121.735 20.3978 121.794 20.6924 121.912 20.9575C122.03 21.2225 122.206 21.4287 122.442 21.576C122.678 21.7233 122.961 21.7969 123.293 21.7969ZM130.358 23.2769C129.931 23.2769 129.54 23.1996 129.187 23.045C128.841 22.8904 128.539 22.6768 128.281 22.4044C128.023 22.1246 127.825 21.7969 127.685 21.4214C127.552 21.0458 127.486 20.6408 127.486 20.2064V19.9524C127.486 19.5179 127.549 19.1129 127.674 18.7374C127.806 18.3619 127.994 18.0342 128.237 17.7544C128.487 17.4672 128.786 17.2463 129.132 17.0917C129.478 16.9297 129.864 16.8487 130.291 16.8487C130.777 16.8487 131.197 16.9554 131.551 17.169C131.904 17.3752 132.18 17.6844 132.379 18.0968C132.578 18.5018 132.688 19.0025 132.71 19.5989L132.246 19.1682V15.0152H134.025V23.0781H132.622V20.5709H132.865C132.843 21.1452 132.721 21.6349 132.5 22.0399C132.287 22.4449 131.996 22.7541 131.628 22.9677C131.26 23.1738 130.836 23.2769 130.358 23.2769ZM130.799 21.7969C131.072 21.7969 131.319 21.738 131.539 21.6202C131.768 21.495 131.948 21.3146 132.081 21.079C132.221 20.8433 132.291 20.5598 132.291 20.2285V19.8198C132.291 19.4958 132.221 19.2234 132.081 19.0025C131.941 18.7816 131.757 18.6122 131.528 18.4944C131.3 18.3766 131.054 18.3177 130.788 18.3177C130.494 18.3177 130.229 18.395 129.993 18.5496C129.765 18.6969 129.585 18.9031 129.452 19.1682C129.319 19.4259 129.253 19.7278 129.253 20.0739C129.253 20.4273 129.319 20.7329 129.452 20.9906C129.585 21.2483 129.769 21.4471 130.004 21.587C130.24 21.7269 130.505 21.7969 130.799 21.7969ZM139.284 23.0781V21.2888H138.985V19.3449C138.985 19.0356 138.912 18.8037 138.764 18.649C138.617 18.4944 138.381 18.4171 138.057 18.4171C137.895 18.4171 137.682 18.4208 137.417 18.4281C137.152 18.4355 136.879 18.4465 136.6 18.4613C136.32 18.476 136.066 18.4907 135.837 18.5054V17.0144C136.007 16.9996 136.206 16.9849 136.434 16.9702C136.662 16.9554 136.898 16.9444 137.141 16.937C137.384 16.9297 137.612 16.926 137.826 16.926C138.444 16.926 138.963 17.0144 139.383 17.1911C139.81 17.3678 140.134 17.6366 140.355 17.9974C140.576 18.3508 140.686 18.8073 140.686 19.367V23.0781H139.284ZM137.351 23.2328C136.916 23.2328 136.533 23.1554 136.202 23.0008C135.878 22.8462 135.624 22.6253 135.44 22.3381C135.256 22.0436 135.164 21.6938 135.164 21.2888C135.164 20.847 135.278 20.4862 135.506 20.2064C135.734 19.9192 136.055 19.7094 136.467 19.5768C136.879 19.4369 137.354 19.367 137.892 19.367H139.184V20.35H137.881C137.572 20.35 137.332 20.4273 137.163 20.5819C137.001 20.7292 136.92 20.9317 136.92 21.1894C136.92 21.4324 137.001 21.6312 137.163 21.7858C137.332 21.9331 137.572 22.0067 137.881 22.0067C138.08 22.0067 138.256 21.9736 138.411 21.9073C138.573 21.8337 138.705 21.7122 138.809 21.5429C138.912 21.3735 138.971 21.1379 138.985 20.836L139.405 21.2778C139.368 21.6975 139.265 22.0509 139.096 22.3381C138.934 22.6253 138.705 22.8462 138.411 23.0008C138.124 23.1554 137.77 23.2328 137.351 23.2328ZM142.011 25.4749V23.9728H143.271C143.462 23.9728 143.624 23.947 143.757 23.8955C143.889 23.8513 143.996 23.774 144.077 23.6635C144.158 23.5531 144.224 23.4021 144.276 23.2107L145.767 17.0254H147.446L145.756 23.5641C145.638 24.0354 145.472 24.4109 145.259 24.6907C145.053 24.9705 144.773 25.1693 144.419 25.2871C144.073 25.4123 143.631 25.4749 143.094 25.4749H142.011ZM143.911 22.9456V21.5649H145.192V22.9456H143.911ZM143.182 22.9456L141.327 17.0254H143.105L144.861 22.9456H143.182Z" fill="black"/>
</g>
<ellipse cx="270.39" cy="18.9938" rx="14.2617" ry="14.447" fill="#FCDA40"/>
<path d="M284.652 18.9938C284.652 22.6292 283.299 26.1309 280.863 28.8004C278.427 31.47 275.087 33.111 271.509 33.3963C267.931 33.6815 264.379 32.5899 261.561 30.3393C258.742 28.0886 256.865 24.8444 256.304 21.2538C255.742 17.6632 256.538 13.9902 258.532 10.9675C260.526 7.94485 263.571 5.7947 267.061 4.94605C270.55 4.09739 274.227 4.61261 277.358 6.38892C280.49 8.16523 282.845 11.072 283.954 14.5295L270.39 18.9938H284.652Z" fill="#FF852D"/>
<path d="M191.238 23.9014V16.3686L191.724 16.7441H189.449V15.8384H192.298V23.9014H191.238ZM196.572 24.0781C195.799 24.0781 195.198 23.9124 194.771 23.5811C194.352 23.2497 194.134 22.7969 194.12 22.2225H195.114C195.129 22.4508 195.243 22.668 195.456 22.8742C195.677 23.073 196.049 23.1724 196.572 23.1724C197.043 23.1724 197.404 23.0803 197.654 22.8963C197.905 22.7048 198.03 22.4729 198.03 22.2004C198.03 21.9574 197.938 21.7697 197.754 21.6371C197.57 21.4972 197.271 21.4052 196.859 21.361L196.218 21.2947C195.659 21.2358 195.202 21.0701 194.849 20.7977C194.495 20.5179 194.319 20.1276 194.319 19.6269C194.319 19.2514 194.414 18.9311 194.606 18.666C194.797 18.3935 195.062 18.1874 195.401 18.0475C195.74 17.9002 196.13 17.8266 196.572 17.8266C197.234 17.8266 197.772 17.9738 198.184 18.2684C198.597 18.5629 198.81 19.001 198.825 19.5827H197.831C197.824 19.3471 197.713 19.1483 197.5 18.9863C197.293 18.8169 196.984 18.7323 196.572 18.7323C196.159 18.7323 195.846 18.8169 195.633 18.9863C195.419 19.1556 195.313 19.3692 195.313 19.6269C195.313 19.8478 195.386 20.0245 195.534 20.1571C195.688 20.2896 195.939 20.3743 196.285 20.4111L196.925 20.4774C197.558 20.5437 198.067 20.7204 198.449 21.0075C198.832 21.2874 199.024 21.685 199.024 22.2004C199.024 22.5686 198.917 22.8963 198.703 23.1834C198.497 23.4632 198.21 23.6841 197.842 23.8461C197.474 24.0008 197.05 24.0781 196.572 24.0781ZM202.858 23.9676C202.416 23.9676 202.033 23.905 201.709 23.7799C201.393 23.6547 201.146 23.4412 200.969 23.1393C200.8 22.83 200.715 22.414 200.715 21.8912V16.214H201.731V22.0237C201.731 22.3403 201.816 22.587 201.985 22.7637C202.162 22.9331 202.409 23.0178 202.725 23.0178H203.764V23.9676H202.858ZM199.699 18.7985V18.0033H203.764V18.7985H199.699ZM212.499 24.1002C211.976 24.1002 211.501 23.9897 211.074 23.7688C210.647 23.5479 210.308 23.2203 210.058 22.7858C209.815 22.3514 209.693 21.8102 209.693 21.1622V20.8861H210.776V21.361C210.776 21.9132 210.938 22.344 211.262 22.6533C211.586 22.9552 211.998 23.1061 212.499 23.1061C212.999 23.1061 213.412 22.9552 213.736 22.6533C214.06 22.344 214.222 21.9132 214.222 21.361V16.5895H215.304V21.1622C215.304 21.8102 215.179 22.3514 214.929 22.7858C214.686 23.2203 214.351 23.5479 213.924 23.7688C213.504 23.9897 213.029 24.1002 212.499 24.1002ZM210.754 16.8104V15.8384H215.304V16.8104H210.754ZM220.922 23.9014V22.1341H220.746V20.0908C220.746 19.6858 220.639 19.3802 220.425 19.1741C220.219 18.9679 219.913 18.8648 219.508 18.8648C219.28 18.8648 219.045 18.8685 218.802 18.8758C218.559 18.8832 218.327 18.8906 218.106 18.8979C217.885 18.9053 217.693 18.9163 217.531 18.9311V18.0033C217.693 17.9885 217.863 17.9775 218.039 17.9701C218.224 17.9554 218.411 17.948 218.603 17.948C218.794 17.9407 218.978 17.937 219.155 17.937C219.759 17.937 220.252 18.0106 220.635 18.1579C221.018 18.2978 221.301 18.5298 221.486 18.8537C221.67 19.1777 221.762 19.6159 221.762 20.1681V23.9014H220.922ZM218.989 24.056C218.548 24.056 218.165 23.9824 217.841 23.8351C217.524 23.6805 217.277 23.4596 217.101 23.1724C216.931 22.8852 216.847 22.5391 216.847 22.1341C216.847 21.7144 216.939 21.3647 217.123 21.0849C217.314 20.8051 217.59 20.5952 217.951 20.4553C218.312 20.308 218.746 20.2344 219.254 20.2344H220.856V21.0296H219.21C218.783 21.0296 218.456 21.1327 218.227 21.3389C217.999 21.5451 217.885 21.8102 217.885 22.1341C217.885 22.4581 217.999 22.7195 218.227 22.9184C218.456 23.1172 218.783 23.2166 219.21 23.2166C219.461 23.2166 219.7 23.1724 219.928 23.084C220.156 22.9883 220.344 22.8337 220.492 22.6201C220.646 22.3992 220.731 22.0973 220.746 21.7144L221.033 22.1341C220.996 22.5539 220.893 22.9073 220.723 23.1945C220.561 23.4743 220.333 23.6878 220.039 23.8351C219.751 23.9824 219.402 24.056 218.989 24.056ZM223.708 23.9014V18.0033H224.547V20.5326H224.415C224.415 19.9509 224.492 19.4612 224.647 19.0636C224.809 18.6586 225.052 18.353 225.376 18.1469C225.7 17.9333 226.108 17.8266 226.602 17.8266H226.646C227.39 17.8266 227.938 18.0585 228.292 18.5224C228.652 18.9863 228.833 19.6564 228.833 20.5326V23.9014H227.772V20.3117C227.772 19.8552 227.644 19.4907 227.386 19.2182C227.128 18.9384 226.775 18.7985 226.325 18.7985C225.862 18.7985 225.486 18.9421 225.199 19.2293C224.912 19.5165 224.768 19.8994 224.768 20.378V23.9014H223.708Z" fill="black"/>
</g>
<defs>
<filter id="filter0_d_1_2981" x="0.700264" y="0.78418" width="292.649" height="44.1615" filterUnits="userSpaceOnUse" color-interpolation-filters="sRGB">
<feFlood flood-opacity="0" result="BackgroundImageFix"/>
<feColorMatrix in="SourceAlpha" type="matrix" values="0 0 0 0 0 0 0 0 0 0 0 0 0 0 0 0 0 0 127 0" result="hardAlpha"/>
<feOffset dy="3.29974"/>
<feGaussianBlur stdDeviation="1.64987"/>
<feComposite in2="hardAlpha" operator="out"/>
<feColorMatrix type="matrix" values="0 0 0 0 0 0 0 0 0 0 0 0 0 0 0 0 0 0 0.12 0"/>
<feBlend mode="normal" in2="BackgroundImageFix" result="effect1_dropShadow_1_2981"/>
<feBlend mode="normal" in="SourceGraphic" in2="effect1_dropShadow_1_2981" result="shape"/>
</filter>
<filter id="filter1_d_1_2981" x="0.844253" y="0.78418" width="292.361" height="43.8735" filterUnits="userSpaceOnUse" color-interpolation-filters="sRGB">
<feFlood flood-opacity="0" result="BackgroundImageFix"/>
<feColorMatrix in="SourceAlpha" type="matrix" values="0 0 0 0 0 0 0 0 0 0 0 0 0 0 0 0 0 0 127 0" result="hardAlpha"/>
<feOffset dy="3.15575"/>
<feGaussianBlur stdDeviation="1.57787"/>
<feComposite in2="hardAlpha" operator="out"/>
<feColorMatrix type="matrix" values="0 0 0 0 0 0 0 0 0 0 0 0 0 0 0 0 0 0 0.25 0"/>
<feBlend mode="normal" in2="BackgroundImageFix" result="effect1_dropShadow_1_2981"/>
<feBlend mode="normal" in="SourceGraphic" in2="effect1_dropShadow_1_2981" result="shape"/>
</filter>
</defs>
</svg>
