<svg width="428" height="202" viewBox="0 0 428 202" fill="none" xmlns="http://www.w3.org/2000/svg">
<path d="M420.2 12.0063C447.21 29.9986 442.332 70.5982 460.061 97.4355C477.653 124.066 520.843 135.856 522.915 167.489C524.966 198.825 489.562 219.06 469.638 243.695C451.95 265.564 437.327 289.798 412.665 303.804C386.529 318.649 356.726 325.277 326.498 324.991C293.289 324.677 258.785 320.924 231.739 302.09C203.609 282.503 178.601 253.259 175.237 219.666C171.97 187.036 203.312 162.19 214.641 131.33C224.956 103.23 218.931 69.5521 238.701 46.7931C259.432 22.9273 291.814 12.3241 323.249 6.29908C355.676 0.0839688 392.895 -6.18255 420.2 12.0063Z" fill="#00DB2C" fill-opacity="0.25"/>
<path d="M208.898 104.744C241.226 110.809 277.331 106.418 303.151 125.956C330.082 146.335 356.797 179.299 349.899 211.441C342.524 245.808 293.338 253.701 269.933 280.745C256.106 296.721 252.602 317.404 242.373 335.684C223.297 369.776 223.841 428.634 183.842 434.598C145.904 440.255 130.442 384.75 106.737 355.908C91.4094 337.258 85.3195 314.316 69.7839 295.824C48.7228 270.755 -0.460687 260.998 0.00325961 228.863C0.453093 197.706 50.9727 192.068 71.6302 167.944C91.6014 144.623 89.4679 104.287 117.887 91.2021C146.115 78.2059 178.148 98.9759 208.898 104.744Z" fill="#FF4D9C" fill-opacity="0.25"/>
</svg>
