<svg width="428" height="259" viewBox="0 0 428 259" fill="none" xmlns="http://www.w3.org/2000/svg">
<path d="M338.2 -163.994C365.21 -146.001 360.332 -105.402 378.061 -78.5645C395.653 -51.9339 438.843 -40.1445 440.915 -8.51114C442.966 22.8251 407.562 43.0598 387.638 67.6945C369.95 89.564 355.327 113.798 330.665 127.804C304.529 142.649 274.726 149.277 244.498 148.991C211.289 148.677 176.785 144.924 149.739 126.09C121.609 106.503 96.601 77.2589 93.2374 43.6658C89.9703 11.0364 121.312 -13.8104 132.641 -44.6699C142.956 -72.7696 136.931 -106.448 156.701 -129.207C177.432 -153.073 209.814 -163.676 241.249 -169.701C273.676 -175.916 310.895 -182.183 338.2 -163.994Z" fill="#00DB2C" fill-opacity="0.25"/>
<path d="M126.898 -71.2557C159.226 -65.1912 195.331 -69.582 221.151 -50.0438C248.082 -29.6649 274.797 3.2986 267.899 35.4405C260.524 69.8083 211.338 77.7008 187.933 104.745C174.106 120.721 170.602 141.404 160.373 159.684C141.297 193.776 141.841 252.634 101.842 258.598C63.9039 264.255 48.4421 208.75 24.7371 179.908C9.40936 161.258 3.31949 138.316 -12.2161 119.824C-33.2772 94.7548 -82.4607 84.9978 -81.9967 52.8633C-81.5469 21.7063 -31.0273 16.0675 -10.3698 -8.05559C9.60141 -31.3773 7.46786 -71.7131 35.8874 -84.7979C64.1146 -97.7941 96.148 -77.0241 126.898 -71.2557Z" fill="#FF4D9C" fill-opacity="0.25"/>
</svg>
